<?xml version="1.0" encoding="UTF-8" standalone="no"?>
<svg
   xmlns:dc="http://purl.org/dc/elements/1.1/"
   xmlns:cc="http://creativecommons.org/ns#"
   xmlns:rdf="http://www.w3.org/1999/02/22-rdf-syntax-ns#"
   xmlns:svg="http://www.w3.org/2000/svg"
   xmlns="http://www.w3.org/2000/svg"
   viewBox="0 0 1061.3333 732"
   height="732"
   width="1061.3333"
   xml:space="preserve"
   id="svg2"
   version="1.1"><metadata
     id="metadata8"><rdf:RDF><cc:Work
         rdf:about=""><dc:format>image/svg+xml</dc:format><dc:type
           rdf:resource="http://purl.org/dc/dcmitype/StillImage" /></cc:Work></rdf:RDF></metadata><defs
     id="defs6"><clipPath
       id="clipPath18"
       clipPathUnits="userSpaceOnUse"><path
         id="path16"
         d="M 0,549 H 796 V 0 H 0 Z" /></clipPath></defs><g
     transform="matrix(1.3333333,0,0,-1.3333333,0,732)"
     id="g10"><g
       id="g12"><g
         clip-path="url(#clipPath18)"
         id="g14"><g
           transform="translate(407.0771,319.3076)"
           id="g20"><path
             id="path22"
             style="fill:#000000;fill-opacity:1;fill-rule:nonzero;stroke:none"
             d="m 0,0 c -0.512,1.424 -0.862,2.99 -2.336,4.1 -0.971,-1.469 -0.17,-2.659 0.089,-3.801 1.879,-8.29 2.157,-16.595 0.573,-24.97 -2.695,-14.245 -9.581,-26.453 -18.188,-37.851 -9.465,-12.534 -21.18,-22.938 -32.041,-34.159 -6.069,-6.269 -13.217,-10.237 -21.512,-12.363 -1.974,-0.506 -4.637,-1.762 -5.959,0.178 -1.379,2.024 0.918,3.912 2.198,5.476 4.643,5.673 9.516,11.159 14.135,16.851 2.741,3.378 5.32,6.935 6.465,11.254 1.011,3.809 -1.917,6.844 -5.74,5.935 -1.017,-0.241 -2.029,-0.688 -2.924,-1.235 -6.93,-4.236 -12.18,-9.832 -14.589,-17.818 -0.978,-3.243 -1.96,-6.539 -3.92,-9.372 -5.659,-8.182 -12.16,-15.589 -20.303,-21.409 -3.662,-2.618 -7.671,-4.585 -12.146,-5.372 -4.103,-0.721 -6.556,1.509 -6.378,5.655 0.133,3.067 1.255,5.873 2.916,8.325 5.719,8.441 11.483,16.857 17.49,25.093 3.445,4.724 4.465,4.83 9.954,2.672 2.829,-1.111 4.716,-0.251 6.097,2.261 1.903,3.461 1.433,5.848 -1.649,8.376 -4.477,3.671 -10.41,3.731 -14.945,0.116 -2.012,-1.604 -3.701,-3.515 -5.069,-5.694 -2.543,-4.05 -5.077,-8.106 -7.588,-12.176 -7,-11.351 -15.246,-21.73 -24.345,-31.46 -3.964,-4.239 -9.314,-5.422 -14.533,-7.343 -0.176,1.624 0.686,2.374 1.19,3.267 4.763,8.437 10.67,16.121 15.938,24.225 2.391,3.678 3.368,7.775 3.078,12.141 -0.102,1.536 -0.645,2.859 -2.312,3.484 -1.669,0.625 -2.912,-0.053 -4.026,-1.115 -1.568,-1.494 -2.467,-3.416 -3.318,-5.382 -3.249,-7.501 -6.071,-15.321 -11.842,-21.336 -4.977,-5.187 -9.25,-10.682 -12.224,-17.3 -1.637,-3.642 -5.123,-5.894 -8.669,-7.724 -0.785,-0.404 -1.791,-1.064 -2.638,-0.171 -0.748,0.788 -0.536,1.882 -0.102,2.704 0.888,1.685 1.837,3.372 3.005,4.869 1.901,2.438 3.618,4.981 5.222,7.62 4.801,7.899 9.363,15.955 15.115,23.238 1.133,1.433 1.802,3.112 2.296,4.868 0.646,2.297 -0.327,3.996 -2.117,5.201 -1.804,1.215 -3.236,-0.019 -4.513,-1.164 -1.516,-1.359 -2.68,-3.034 -3.615,-4.828 -6.262,-12.01 -14.597,-22.692 -21.836,-34.076 -1.474,-2.317 -3.337,-4.399 -5.119,-6.506 -3.189,-3.772 -7.304,-5.742 -12.243,-5.877 -3.082,-0.084 -3.798,1.049 -2.57,3.941 0.329,0.776 0.712,1.568 1.239,2.215 7.686,9.428 12.457,20.774 19.979,30.312 2.112,2.678 3.761,5.662 5.002,8.849 2.031,5.214 1.02,10.705 -2.443,13.469 -3.633,2.9 -8.744,2.707 -13.63,-0.585 -2.753,-1.855 -5.062,-4.199 -7.138,-6.783 -10.207,-12.707 -19.039,-26.354 -27.327,-40.354 -4.22,-7.13 -9.03,-13.907 -12.738,-21.342 -0.833,-1.67 -0.654,-3.054 0.793,-4.255 1.422,-1.181 2.618,-0.301 3.728,0.5 0.759,0.547 1.448,1.256 1.996,2.017 1.675,2.326 3.192,4.769 4.904,7.066 7.811,10.484 15.685,20.919 22.095,32.363 2.236,3.994 4.893,7.721 7.759,11.285 1.729,2.151 3.511,4.286 6.007,5.634 0.996,0.539 2.045,0.654 3.041,0.064 1.136,-0.673 0.96,-1.835 0.803,-2.867 -0.325,-2.133 -1.356,-4.002 -2.373,-5.874 -4.067,-7.497 -9.505,-14.091 -13.987,-21.314 -2.799,-4.512 -5.78,-8.941 -6.851,-14.28 -0.737,-3.666 0.936,-6.168 4.548,-7.111 3.924,-1.024 7.593,-0.294 11.127,1.415 1.911,0.925 3.761,1.979 5.603,3.038 2.475,1.422 4.396,1.159 6.342,-1.182 2.702,-3.252 5.879,-3.66 9.696,-1.695 2.79,1.436 4.963,3.606 6.973,5.981 1.37,1.619 2.817,3.184 4.337,4.663 1.313,1.278 2.872,1.816 4.637,0.78 4.781,-2.804 9.182,-1.617 13.388,1.32 4.183,2.92 8.32,5.904 12.514,8.806 4.125,2.856 4.505,2.836 6.124,-1.852 1.328,-3.846 3.997,-5.209 7.728,-5.378 4.375,-0.199 8.338,1.23 12.301,2.833 7.329,2.965 12.687,8.409 17.939,14.008 2.144,2.285 4.417,3.228 7.182,0.927 3.875,-3.225 8.179,-2.9 12.647,-1.5 10.356,3.248 19.151,9.098 27.112,16.288 15.616,14.104 27.572,31.153 38.798,48.749 C 4.832,-35.946 6.621,-18.401 0,0" /></g><g
           transform="translate(523.312,303.8091)"
           id="g24"><path
             id="path26"
             style="fill:#000000;fill-opacity:1;fill-rule:nonzero;stroke:none"
             d="m 0,0 c -3.04,-8.51 -7.944,-15.644 -14.258,-21.976 -6.314,-6.332 -12.569,-12.715 -20.797,-16.63 -2.687,-1.279 -5.422,-2.472 -8.489,-2.473 -3.462,0 -4.577,1.643 -3.299,4.928 1.048,2.694 2.635,5.083 4.341,7.402 4.606,6.261 9.898,11.933 15.085,17.7 4.329,4.81 8.866,9.504 11.452,15.593 0.99,2.331 1.622,4.882 -0.697,6.725 -2.242,1.783 -4.599,0.886 -6.775,-0.558 -3.433,-2.277 -5.974,-5.437 -8.384,-8.67 -8.932,-11.979 -15.918,-25.442 -27.298,-35.561 -1.316,-1.169 -2.198,-2.872 -2.528,-4.716 -0.414,-2.316 1.099,-4.827 2.913,-4.311 3.755,1.065 4.996,-1.323 6.235,-3.866 1.422,-2.916 3.695,-4.116 6.9,-4.173 5.104,-0.09 9.527,1.763 13.804,4.26 6.418,3.747 11.529,8.989 16.663,14.246 3.543,3.628 4.941,3.611 7.83,-0.363 2.46,-3.384 5.749,-4.449 9.589,-4.755 7.41,-0.591 14.322,1.365 21.051,4.149 13.657,5.648 25.87,13.762 37.674,22.495 14.509,10.734 27.803,22.706 37.676,38.073 10.219,15.906 12.509,32.64 5.158,51.149 -0.181,-2.736 -0.406,-4.711 -0.428,-6.69 C 103.156,48.634 94.281,29.004 77.549,12.957 65.712,1.603 52.683,-8.323 38.892,-17.185 c -9.674,-6.216 -20.215,-10.329 -31.78,-11.41 -2.678,-0.25 -5.651,-0.428 -7.357,1.92 -1.635,2.25 -0.086,4.682 1.064,6.842 0.596,1.122 1.296,2.198 2.041,3.228 3.68,5.084 7.708,9.882 11.988,14.471 2.617,2.807 5.136,5.699 6.593,9.313 1.047,2.594 1.378,5.236 -0.9,7.392 -2.352,2.225 -4.837,1.051 -7.049,-0.232 C 7.585,10.915 2.358,6.602 0,0" /></g><g
           transform="translate(518.9287,375.5645)"
           id="g28"><path
             id="path30"
             style="fill:#000000;fill-opacity:1;fill-rule:nonzero;stroke:none"
             d="M 0,0 C -7.033,-10.416 -15.12,-19.929 -23.789,-28.961 -17.473,-17.976 -9.009,-8.75 0,0 m 219.919,37.877 c -0.267,1.277 -0.534,2.555 -0.802,3.832 h 0.001 c -0.19,0.848 -0.381,1.696 -0.571,2.544 -0.222,1.077 -0.444,2.154 -0.666,3.23 -0.577,-1.2 -0.815,-2.303 0.104,-3.232 0.097,-0.878 0.788,-1.939 0.715,-2.243 l -0.074,-0.304 c 0.074,-2.067 0.074,-2.067 0.616,-5.264 0.001,-0.002 0.002,-0.005 0.002,-0.007 0.662,-9.335 1.099,-18.67 -0.08,-27.998 -2.769,-21.912 -11.206,-41.545 -24.38,-59.113 -16.739,-22.322 -37.301,-40.675 -60.141,-56.534 -26.009,-18.06 -54.543,-30.68 -85.035,-38.961 -31.341,-8.513 -63.041,-13.762 -95.668,-9.941 -10.169,1.19 -20.052,3.53 -29.528,7.483 -8.014,3.343 -13.025,9 -13.805,17.881 -0.507,5.79 1.415,11.095 3.505,16.348 1.137,2.858 2.889,5.714 2.61,8.782 -0.66,7.254 3.239,12.297 7.54,17.242 4.463,5.129 9.063,10.141 13.474,15.315 7.68,9.008 15.791,17.508 25.885,23.918 3.762,2.39 7.285,5.151 10.642,8.11 15.501,13.663 28.443,29.522 39.859,46.661 2.815,4.228 5.581,8.62 5.545,14.016 -0.026,4.06 -2.519,5.966 -6.492,4.952 C 6.891,22.991 2.864,18.253 -0.807,13.523 -12.463,-1.5 -23.849,-16.722 -36.455,-30.994 c -4.914,-5.563 -9.138,-11.731 -13.793,-17.529 -1.406,-1.752 -2.674,-3.84 -4.996,-4.393 -1.229,0.94 0.468,3.542 -1.753,3.221 -2.054,-0.296 -2.565,-2.277 -2.049,-4.301 0.026,-0.102 0.017,-0.217 0.056,-0.313 1.298,-3.182 0.188,-5.731 -2.023,-8.054 -1.757,-1.846 -3.357,-3.843 -5.14,-5.661 -9.314,-9.49 -17.989,-19.547 -26.646,-29.63 -7.693,-8.96 -13.909,-19.052 -21.702,-27.93 -1.816,-2.069 -3.392,-4.38 -4.133,-7.118 -0.507,-1.872 -0.429,-3.575 1.403,-4.794 1.835,-1.223 3.438,-0.659 4.946,0.586 2.175,1.796 3.477,4.264 4.993,6.569 2.51,3.817 4.952,7.686 8.048,11.077 0.571,0.626 1.207,1.531 2.057,1.261 1.236,-0.393 0.725,-1.663 0.589,-2.488 -0.676,-4.114 -0.878,-8.256 -0.572,-12.389 0.723,-9.777 4.769,-17.481 13.936,-21.989 4.213,-2.071 8.566,-3.727 13.046,-5.065 21.116,-6.306 42.722,-6.772 64.423,-4.888 20.976,1.821 41.596,5.79 61.762,11.916 27.178,8.256 53.312,18.998 76.677,35.337 20.602,14.407 39.344,31.131 56.289,49.737 9.986,10.964 18.394,23.086 24.591,36.657 5.672,12.425 8.803,25.466 9.412,39.07 0.453,10.116 -0.557,20.138 -3.047,29.982" /></g><g
           transform="translate(164.2866,197.7969)"
           id="g32"><path
             id="path34"
             style="fill:#000000;fill-opacity:1;fill-rule:nonzero;stroke:none"
             d="m 0,0 c -8.236,-11.89 -18.63,-21.772 -29.515,-31.165 -3.697,-3.19 -7.399,-6.4 -11.644,-8.873 -1.338,-0.779 -2.807,-2.207 -4.341,-1.137 -1.619,1.128 -0.897,3.189 -0.668,4.771 1.471,10.175 5.37,19.397 11.406,27.694 9.815,13.49 20.014,26.686 30.754,39.457 2.371,2.819 4.576,2.774 6.701,-0.24 C 5.625,26.352 6.129,21.464 6.68,17.149 6.575,10.204 3.458,4.993 0,0 m 16.061,20.552 c 0.39,6.389 -3.005,11.311 -6.833,16 -3.597,4.405 -3.596,5.313 0.29,9.418 10.96,11.577 21.842,23.232 32.998,34.619 21.65,22.099 43.454,44.047 65.225,66.027 3.53,3.564 6.437,7.576 9.023,11.903 -1.908,-0.416 -3.426,-1.358 -4.79,-2.519 -2.588,-2.204 -5.069,-4.536 -7.689,-6.699 C 93.549,140.436 82.996,131.366 72.822,121.854 52.848,103.184 34.093,83.312 15.244,63.533 11.359,59.458 7.598,55.264 3.789,51.116 0.721,47.777 -2.882,46.747 -7.149,48.542 c -1.616,0.679 -3.319,0.816 -5.014,0.617 -2.947,-0.347 -5.868,-0.946 -8.821,-1.203 -1.483,-0.13 -3.646,-1.046 -4.351,0.52 -0.558,1.239 1.428,2.374 2.425,3.418 3.228,3.379 6.693,6.534 9.483,10.32 1.732,2.351 2.549,4.809 0.426,7.25 -2.243,2.578 -4.701,1.1 -6.915,-0.151 -3.558,-2.01 -6.415,-4.901 -9.097,-7.929 -25.789,-29.114 -51.578,-58.228 -77.302,-87.399 -4.768,-5.407 -9.834,-10.627 -13.006,-17.255 -0.828,-1.731 -1.565,-3.479 -1.628,-5.445 -0.051,-1.59 0.777,-2.591 2.069,-3.311 1.288,-0.718 2.317,-0.013 3.141,0.804 2.187,2.166 4.457,4.287 6.377,6.68 14.632,18.232 29.344,36.392 45.254,53.544 7.985,8.609 16.488,16.6 26.769,22.441 7.619,4.328 15.507,7.988 24.514,8.152 1.405,0.026 3.24,0.467 3.958,-1.26 0.617,-1.481 -0.69,-2.537 -1.546,-3.587 -6.381,-7.821 -12.88,-15.548 -19.136,-23.468 -8.836,-11.188 -17.456,-22.545 -21.915,-36.378 -2.274,-7.057 -3.539,-14.248 -1.799,-21.612 0.965,-4.08 3.928,-5.698 7.988,-4.672 3.336,0.843 6.386,2.381 9.134,4.41 12.864,9.493 24.683,20.175 35.532,31.901 4.548,4.915 8.598,10.265 11.547,16.352 2.953,6.094 4.711,12.537 5.123,19.271" /></g></g></g></g></svg>