<svg height="512pt" viewBox="0 0 512 512.00002" width="512pt" xmlns="http://www.w3.org/2000/svg"><path d="m503.464844 17.066406c4.714844 0 8.535156-3.820312 8.535156-8.53125 0-4.714844-3.820312-8.535156-8.535156-8.535156h-220.546875c-8.453125-.0078125-16.609375 3.128906-22.875 8.800781l-245.96875 222.164063c-8.953125 8.097656-14.0625002 19.597656-14.074219 31.667968v27.5c0 4.714844 3.820312 8.535157 8.535156 8.535157 4.710938 0 8.53125-3.820313 8.53125-8.535157v-27.5c.007813-7.242187 3.074219-14.140624 8.441406-19l34.226563-30.914062v196.882812h-51.199219c-4.714844 0-8.535156 3.820313-8.535156 8.53125 0 4.714844 3.820312 8.535157 8.535156 8.535157h8.53125v68.265625c.011719 9.421875 7.648438 17.054687 17.066406 17.066406h460.800782c9.421875-.011719 17.054687-7.644531 17.066406-17.066406v-324.265625c-.011719-9.421875-7.644531-17.054688-17.066406-17.066407h-51.199219v-136.535156zm-220.546875 0h58.414062v136.535156h-51.199219c-4.710937 0-8.53125 3.820313-8.53125 8.53125 0 4.714844 3.820313 8.535157 8.53125 8.535157h8.535157v59.730469c-.003907 4.714843-3.824219 8.53125-8.535157 8.535156h-25.597656v-211.191406l6.949219-6.277344c3.128906-2.835938 7.207031-4.40625 11.433594-4.398438zm-69.585938 221.867188h-17.066406c-4.710937 0-8.53125 3.820312-8.53125 8.53125 0 4.714844 3.820313 8.535156 8.53125 8.535156h8.535156v59.734375c-.003906 4.710937-3.824219 8.53125-8.535156 8.53125h-25.597656v-211.742187l76.796875-69.363282v195.773438zm-136.53125-41.628906 76.800781-69.363282v196.324219h-51.203124c-4.710938 0-8.53125 3.820313-8.53125 8.535156 0 4.710938 3.820312 8.53125 8.53125 8.53125h8.535156v59.734375c-.003906 4.710938-3.820313 8.53125-8.535156 8.535156h-25.597657zm264.53125 297.628906v-213.332032c.003907-4.714843 3.824219-8.53125 8.535157-8.535156h102.398437c4.710937.003906 8.53125 3.820313 8.535156 8.535156v213.332032zm153.601563 0h-17.066406v-213.332032c-.015626-14.132812-11.46875-25.585937-25.601563-25.601562h-102.398437c-14.132813.015625-25.585938 11.46875-25.601563 25.601562v213.332032h-290.132813v-68.265625h68.265626c14.132812-.015625 25.585937-11.46875 25.601562-25.601563v-59.734375h68.265625c14.132813-.015625 25.585937-11.464843 25.601563-25.597656v-59.734375h68.265624c14.132813-.015625 25.585938-11.46875 25.601563-25.601562v-59.730469h34.148437l85.261719-.007813.054688.007813.054687-.011719 59.679688-.007812zm-68.265625-341.332032h-68.269531v-136.535156h68.269531zm0 0"/><path d="m435.199219 358.398438c-4.710938 0-8.53125 3.820312-8.53125 8.535156v8.53125c0 4.714844 3.820312 8.535156 8.53125 8.535156 4.714843 0 8.535156-3.820312 8.535156-8.535156v-8.53125c0-4.714844-3.820313-8.535156-8.535156-8.535156zm0 0"/></svg>