<svg height="512pt" viewBox="0 0 512 512" width="512pt" xmlns="http://www.w3.org/2000/svg"><path d="m59.734375 247.464844c0 4.714844-3.820313 8.535156-8.535156 8.535156-4.710938 0-8.53125-3.820312-8.53125-8.535156 0-4.710938 3.820312-8.53125 8.53125-8.53125 4.714843 0 8.535156 3.820312 8.535156 8.53125zm0 0"/><path d="m93.867188 247.464844c0 4.714844-3.820313 8.535156-8.535157 8.535156-4.710937 0-8.53125-3.820312-8.53125-8.535156 0-4.710938 3.820313-8.53125 8.53125-8.53125 4.714844 0 8.535157 3.820312 8.535157 8.53125zm0 0"/><path d="m162.132812 247.464844c0 4.714844-3.820312 8.535156-8.53125 8.535156-4.714843 0-8.535156-3.820312-8.535156-8.535156 0-4.710938 3.820313-8.53125 8.535156-8.53125 4.710938 0 8.53125 3.820312 8.53125 8.53125zm0 0"/><path d="m196.265625 247.464844c0 4.714844-3.820313 8.535156-8.53125 8.535156-4.714844 0-8.535156-3.820312-8.535156-8.535156 0-4.710938 3.820312-8.53125 8.535156-8.53125 4.710937 0 8.53125 3.820312 8.53125 8.53125zm0 0"/><path d="m179.199219 298.667969h-119.464844c-14.132813.015625-25.585937 11.464843-25.601563 25.597656v85.335937c.015626 14.128907 11.46875 25.582032 25.601563 25.597657h119.464844c14.132812-.015625 25.585937-11.46875 25.601562-25.597657v-85.335937c-.015625-14.132813-11.46875-25.582031-25.601562-25.597656zm8.535156 110.933593c-.007813 4.707032-3.824219 8.527344-8.535156 8.53125h-119.464844c-4.710937-.003906-8.527344-3.824218-8.535156-8.53125v-85.335937c.007812-4.710937 3.824219-8.527344 8.535156-8.53125h119.464844c4.710937.003906 8.527343 3.820313 8.535156 8.53125zm0 0"/><path d="m17.066406 102.398438h204.800782c3.570312.003906 6.765624-2.222657 8.003906-5.570313 1.238281-3.351563.261718-7.117187-2.449219-9.441406l-56.753906-48.644531v-30.207032c0-4.714844-3.820313-8.535156-8.535157-8.535156h-85.332031c-4.714843 0-8.535156 3.820312-8.535156 8.535156v30.207032l-56.753906 48.644531c-2.710938 2.324219-3.6875 6.089843-2.449219 9.441406 1.238281 3.347656 4.433594 5.574219 8.003906 5.570313zm68.265625-85.332032h68.269531v17.066406h-68.269531zm-5.375 34.132813h79.019531l39.824219 34.132812h-158.667969zm0 0"/><path d="m503.464844 0h-136.53125c-4.714844 0-8.535156 3.820312-8.535156 8.535156v204.796875h-128c-2.289063.003907-4.484376.929688-6.082032 2.574219-3.421875-1.671875-7.175781-2.554688-10.984375-2.574219h-187.730469c-14.132812.015625-25.585937 11.46875-25.601562 25.601563v247.464844c.015625 14.132812 11.46875 25.585937 25.601562 25.601562h187.730469c3.808594-.019531 7.5625-.902344 10.984375-2.574219 1.597656 1.644531 3.792969 2.574219 6.082032 2.574219h273.066406c4.714844 0 8.535156-3.820312 8.535156-8.535156v-494.929688c0-4.714844-3.820312-8.535156-8.535156-8.535156zm-264.53125 230.398438h119.464844v51.203124h-51.199219v-8.535156c0-4.710937-3.820313-8.53125-8.53125-8.53125-4.714844 0-8.535157 3.820313-8.535157 8.53125v8.535156h-51.199218zm-221.867188 8.535156c.007813-4.710938 3.824219-8.527344 8.535156-8.535156h187.730469c4.710938.007812 8.527344 3.824218 8.535157 8.535156v25.601562h-204.800782zm196.265625 256h-17.066406v-34.132813c0-4.714843-3.820313-8.535156-8.53125-8.535156-4.714844 0-8.535156 3.820313-8.535156 8.535156v34.132813h-17.066407v-34.132813c0-4.714843-3.820312-8.535156-8.53125-8.535156-4.714843 0-8.535156 3.820313-8.535156 8.535156v34.132813h-17.066406v-34.132813c0-4.714843-3.820312-8.535156-8.535156-8.535156-4.710938 0-8.53125 3.820313-8.53125 8.535156v34.132813h-17.066406v-34.132813c0-4.714843-3.820313-8.535156-8.535157-8.535156-4.710937 0-8.53125 3.820313-8.53125 8.535156v34.132813h-17.066406v-34.132813c0-4.714843-3.820313-8.535156-8.535156-8.535156-4.710938 0-8.53125 3.820313-8.53125 8.535156v34.132813h-17.066407c-4.710937-.007813-8.527343-3.824219-8.535156-8.535156v-204.796876h204.800782v204.796876c-.007813 4.710937-3.824219 8.527343-8.535157 8.535156zm25.601563-8.535156v-187.730469h119.464844v196.265625h-119.464844zm256 8.535156h-119.46875v-477.867188h119.46875zm0 0"/><path d="m332.800781 366.933594c-4.714843 0-8.535156 3.820312-8.535156 8.53125v17.070312c0 4.710938 3.820313 8.53125 8.535156 8.53125 4.710938 0 8.53125-3.820312 8.53125-8.53125v-17.070312c0-4.710938-3.820312-8.53125-8.53125-8.53125zm0 0"/><path d="m469.332031 213.332031c-4.710937 0-8.53125 3.820313-8.53125 8.535157v17.066406c0 4.710937 3.820313 8.53125 8.53125 8.53125 4.714844 0 8.535157-3.820313 8.535157-8.53125v-17.066406c0-4.714844-3.820313-8.535157-8.535157-8.535157zm0 0"/><path d="m401.066406 51.199219h68.265625c4.714844 0 8.535157-3.820313 8.535157-8.53125 0-4.714844-3.820313-8.535157-8.535157-8.535157h-68.265625c-4.710937 0-8.53125 3.820313-8.53125 8.535157 0 4.710937 3.820313 8.53125 8.53125 8.53125zm0 0"/><path d="m401.066406 477.867188h68.265625c4.714844 0 8.535157-3.820313 8.535157-8.535157 0-4.710937-3.820313-8.53125-8.535157-8.53125h-68.265625c-4.710937 0-8.53125 3.820313-8.53125 8.53125 0 4.714844 3.820313 8.535157 8.53125 8.535157zm0 0"/><path d="m332.800781 460.800781h-68.265625c-4.714844 0-8.535156 3.820313-8.535156 8.53125 0 4.714844 3.820312 8.535157 8.535156 8.535157h68.265625c4.710938 0 8.53125-3.820313 8.53125-8.535157 0-4.710937-3.820312-8.53125-8.53125-8.53125zm0 0"/><path d="m332.800781 315.734375h-68.265625c-4.714844 0-8.535156 3.820313-8.535156 8.53125 0 4.714844 3.820312 8.535156 8.535156 8.535156h68.265625c4.710938 0 8.53125-3.820312 8.53125-8.535156 0-4.710937-3.820312-8.53125-8.53125-8.53125zm0 0"/><path d="m76.800781 332.800781c-4.714843 0-8.535156 3.820313-8.535156 8.53125v8.535157c0 4.710937 3.820313 8.53125 8.535156 8.53125 4.710938 0 8.53125-3.820313 8.53125-8.53125v-8.535157c0-4.710937-3.820312-8.53125-8.53125-8.53125zm0 0"/><path d="m76.800781 375.464844c-4.714843 0-8.535156 3.824218-8.535156 8.535156v8.535156c0 4.710938 3.820313 8.53125 8.535156 8.53125 4.710938 0 8.53125-3.820312 8.53125-8.53125v-8.535156c0-4.710938-3.820312-8.535156-8.53125-8.535156zm0 0"/></svg>