<svg height="512pt" viewBox="0 0 512 512.1086" width="512pt" xmlns="http://www.w3.org/2000/svg"><path d="m486.453125 221.867188h-68.265625c-4.125 0-7.660156 2.949218-8.394531 7.007812l-17.066407 93.867188c-.453124 2.488281.222657 5.050781 1.84375 6.992187 1.621094 1.941406 4.019532 3.066406 6.550782 3.066406h42.449218c-2.273437 48.597657-42.9375 86.484375-91.574218 85.324219-48.636719-1.160156-87.449219-40.941406-87.410156-89.589844v-84.636718c17.84375 19.390624 45.753906 25.84375 70.296874 16.25 24.539063-9.59375 40.675782-33.265626 40.636719-59.613282v-21.335937h42.667969c2.53125 0 4.929688-1.121094 6.550781-3.0625 1.621094-1.945313 2.296875-4.503907 1.84375-6.996094l-17.066406-93.867187c-.734375-4.054688-4.269531-7.007813-8.394531-7.007813h-68.265625c-4.125 0-7.660157 2.953125-8.398438 7.007813l-17.066406 93.867187c-.449219 2.492187.226563 5.050781 1.847656 6.996094 1.621094 1.941406 4.019531 3.0625 6.550781 3.0625h42.664063v21.335937c0 25.917969-21.011719 46.929688-46.933594 46.929688-25.917969 0-46.933593-21.011719-46.933593-46.929688v-183.46875h8.535156c4.710937 0 8.535156-3.820312 8.535156-8.53125 0-4.714844-3.824219-8.535156-8.535156-8.535156h-34.132813c-4.714843 0-8.535156 3.820312-8.535156 8.535156 0 4.710938 3.820313 8.53125 8.535156 8.53125h8.53125v183.46875c0 25.917969-21.011719 46.929688-46.933593 46.929688-25.917969 0-46.929688-21.011719-46.929688-46.929688v-21.335937h42.664062c2.53125 0 4.929688-1.121094 6.550782-3.0625 1.621094-1.945313 2.296875-4.503907 1.847656-6.996094l-17.070312-93.867187c-.734376-4.054688-4.269532-7.007813-8.394532-7.007813h-68.265625c-4.125 0-7.660156 2.953125-8.398437 7.007813l-17.066406 93.867187c-.449219 2.492187.226562 5.050781 1.847656 6.996094 1.621094 1.941406 4.019531 3.0625 6.550781 3.0625h42.664063v21.335937c-.035157 26.347656 16.101562 50.019532 40.640624 59.613282 24.539063 9.59375 52.453126 3.140624 70.292969-16.25v84.636718c.042969 48.648438-38.769531 88.429688-87.40625 89.589844s-89.300781-36.726562-91.578125-85.324219h42.453125c2.53125 0 4.929688-1.125 6.550781-3.066406 1.621094-1.941406 2.296876-4.503906 1.84375-6.992187l-17.066406-93.867188c-.738281-4.058594-4.269531-7.007812-8.394531-7.007812h-68.265625c-4.125 0-7.660156 2.949218-8.398438 7.007812l-17.066406 93.867188c-.453125 2.488281.222656 5.050781 1.84375 6.992187s4.023438 3.066406 6.550782 3.066406h42.667968v112.503907c-11.753906 4.15625-18.804687 16.175781-16.699218 28.464843 2.109374 12.289063 12.765624 21.273438 25.234374 21.273438 12.464844 0 23.121094-8.984375 25.230469-21.273438 2.109375-12.289062-4.945312-24.308593-16.699219-28.464843v-59.105469c19.566407 30.53125 53.335938 49 89.601563 49s70.03125-18.46875 89.597656-49v76.171875c-11.753906 4.15625-18.804687 16.179687-16.695312 28.464844 2.105469 12.289062 12.761719 21.273437 25.230469 21.273437s23.121093-8.984375 25.230468-21.273437c2.109375-12.285157-4.941406-24.308594-16.699218-28.464844v-76.171875c19.566406 30.53125 53.335937 49 89.601562 49s70.035156-18.46875 89.601562-49v59.105469c-11.757812 4.15625-18.808593 16.175781-16.699218 28.464843 2.109375 12.289063 12.761718 21.273438 25.230468 21.273438s23.125-8.984375 25.230469-21.273438c2.109375-12.289062-4.941406-24.308593-16.695312-28.464843v-112.503907h42.664062c2.53125 0 4.929688-1.125 6.550781-3.066406 1.621094-1.941406 2.296876-4.503906 1.847657-6.992187l-17.066407-93.867188c-.738281-4.058594-4.273437-7.007812-8.398437-7.007812zm-146.476563-136.535157h54.023438l13.964844 76.800781h-81.953125zm-221.867187 0h54.023437l13.964844 76.800781h-81.953125zm-99.296875 230.402344 13.964844-76.800781h54.023437l13.960938 76.800781zm40.976562 162.132813c-4.714843 0-8.535156-3.820313-8.535156-8.535157 0-4.710937 3.820313-8.53125 8.535156-8.53125 4.710938 0 8.53125 3.820313 8.53125 8.53125-.003906 4.710938-3.820312 8.53125-8.53125 8.535157zm196.265626 17.066406c-4.714844 0-8.535157-3.820313-8.535157-8.535156 0-4.710938 3.820313-8.53125 8.535157-8.53125 4.710937 0 8.53125 3.820312 8.53125 8.53125-.003907 4.710937-3.820313 8.53125-8.53125 8.535156zm196.265624-17.066406c-4.710937 0-8.53125-3.820313-8.53125-8.535157 0-4.710937 3.820313-8.53125 8.53125-8.53125 4.714844 0 8.535157 3.820313 8.535157 8.53125-.003907 4.710938-3.824219 8.53125-8.535157 8.535157zm-40.976562-162.132813 13.964844-76.800781h54.023437l13.964844 76.800781zm0 0"/></svg>