<svg height="512pt" viewBox="0 0 512 512" width="512pt" xmlns="http://www.w3.org/2000/svg"><path d="m503.464844 0h-494.929688c-4.714844 0-8.535156 3.820312-8.535156 8.535156v281.597656c0 4.714844 3.820312 8.535157 8.535156 8.535157h145.066406v204.796875c0 4.714844 3.820313 8.535156 8.53125 8.535156h341.332032c4.714844 0 8.535156-3.820312 8.535156-8.535156v-494.929688c0-4.714844-3.820312-8.535156-8.535156-8.535156zm-8.53125 494.933594h-324.265625v-204.800782c0-4.710937-3.820313-8.53125-8.535157-8.53125h-145.066406v-264.535156h477.867188zm0 0"/><path d="m42.667969 264.535156h119.464843c4.714844 0 8.535157-3.824218 8.535157-8.535156v-51.199219h17.066406v51.199219c0 4.710938 3.820313 8.535156 8.53125 8.535156h110.933594v17.066406h-110.933594c-4.710937 0-8.53125 3.820313-8.53125 8.53125v179.199219c0 4.714844 3.820313 8.535157 8.53125 8.535157h127.308594c.324219.085937.65625.152343.992187.199218h.035156l50.671876-.199218h94.058593c4.714844 0 8.535157-3.820313 8.535157-8.535157v-179.199219c0-4.710937-3.820313-8.53125-8.535157-8.53125h-34.132812v-17.066406h34.132812c4.714844 0 8.535157-3.824218 8.535157-8.535156v-213.332031c0-4.714844-3.820313-8.535157-8.535157-8.535157h-273.066406c-4.710937 0-8.53125 3.820313-8.53125 8.535157v34.132812h-17.066406v-34.132812c0-4.714844-3.820313-8.535157-8.535157-8.535157h-119.464843c-4.714844 0-8.535157 3.820313-8.535157 8.535157v213.332031c0 4.710938 3.820313 8.535156 8.535157 8.535156zm162.132812 68.265625h34.132813v93.867188h-34.132813zm127.742188 17.03125 85.335937-.339843.316406 68.472656-42.628906.167968-42.707031.171876zm51.628906 85.335938 34.105469-.132813.113281 25.59375-34.125.136719zm-51.226563.199219 34.160157-.132813.09375 25.566406h-34.144531zm-34.277343-350.035157h17.066406v34.132813h-17.066406zm34.132812 0h51.199219v25.601563h-51.199219zm68.265625 0h17.066406v34.132813h-17.066406zm25.601563-34.132812v17.066406h-136.535157v-17.066406zm-273.066407 0v34.132812c0 4.714844 3.820313 8.535157 8.53125 8.535157h30.03125l65.707032 82.128906c2.941406 3.679687 8.3125 4.28125 11.996094 1.335937 3.679687-2.941406 4.277343-8.3125 1.335937-11.996093l-66.402344-83v-31.136719h68.265625v25.601562c0 4.710938 3.820313 8.53125 8.535156 8.53125v42.667969c0 4.710938 3.820313 8.535156 8.53125 8.535156h34.132813c4.714844 0 8.535156-3.824218 8.535156-8.535156h51.199219c0 4.710938 3.820312 8.535156 8.535156 8.535156h34.132813c4.710937 0 8.53125-3.824218 8.53125-8.535156v-42.667969c4.714843 0 8.535156-3.820312 8.535156-8.53125v-25.601562h17.066406v196.265625h-31.445312l-83.128907-58.191406c-3.863281-2.621094-9.113281-1.65625-11.789062 2.167968-2.675781 3.824219-1.78125 9.089844 2.003906 11.816406l81.691406 57.183594v29.691406c0 4.714844 3.820313 8.535157 8.535157 8.535157h34.132812v162.132812h-25.339843l-.160157-34.203125c0-.058594.03125-.105468.03125-.164062s-.03125-.105469-.03125-.164063l-.402343-85.382812c-.023438-4.695313-3.835938-8.488281-8.53125-8.492188h-.035157l-102.398437.40625c-2.265625.007813-4.433594.917969-6.027344 2.523438-1.59375 1.609375-2.484375 3.785156-2.472656 6.050781l.554687 119.425781h-111.1875v-17.066406h42.664063c4.714844 0 8.535156-3.820313 8.535156-8.535156v-110.933594c0-4.710937-3.820312-8.53125-8.535156-8.53125h-42.664063v-17.066406h110.933594c4.710937 0 8.53125-3.820313 8.53125-8.535157v-34.132812c0-4.710938-3.820313-8.535156-8.53125-8.535156h-110.933594v-51.199219c0-4.710937-3.820312-8.53125-8.535156-8.53125h-34.132813c-4.710937 0-8.53125 3.820313-8.53125 8.53125v51.199219h-102.402343v-17.066406h42.667969c4.710937 0 8.53125-3.820313 8.53125-8.53125v-145.066407c0-4.714843-3.820313-8.535156-8.53125-8.535156h-42.667969v-17.066406zm-102.402343 34.132812h34.132812v128h-34.132812zm0 0"/></svg>