<svg height="512pt" viewBox="0 0 512.00084 512" width="512pt" xmlns="http://www.w3.org/2000/svg"><path d="m15.359375 324.5625c.03125.214844.15625.386719.203125.597656l2.589844 20.59375c1.523437 11.292969 8.59375 21.074219 18.835937 26.070313l-24.382812 130.070312c-.46875 2.496094.199219 5.070313 1.820312 7.023438 1.621094 1.953125 4.027344 3.082031 6.566407 3.082031h17.066406c3.730468 0 7.03125-2.425781 8.144531-5.988281l40.796875-130.542969h26.1875l6.53125 20.972656-42.289062 103.804688c-1.074219 2.632812-.765626 5.625.820312 7.984375 1.585938 2.355469 4.242188 3.769531 7.082031 3.769531h34.132813c3.472656 0 6.59375-2.101562 7.90625-5.3125l15.1875-37.28125 11.429687 36.601562c1.113281 3.566407 4.410157 5.992188 8.144531 5.992188h17.066407c2.539062 0 4.945312-1.128906 6.566406-3.082031 1.625-1.957031 2.289063-4.53125 1.820313-7.027344l-18.390626-97.863281 49.878907-122.425782h73.851562l49.878907 122.425782-18.390626 97.863281c-.46875 2.496094.195313 5.070313 1.816407 7.027344 1.621093 1.953125 4.03125 3.082031 6.570312 3.082031h17.066407c3.734374 0 7.03125-2.425781 8.144531-5.992188l11.429687-36.601562 15.1875 37.28125c1.3125 3.210938 4.433594 5.3125 7.902344 5.3125h34.136719c2.839843 0 5.496093-1.414062 7.082031-3.769531 1.585938-2.359375 1.894531-5.351563.820312-7.984375l-42.292968-103.804688 6.535156-20.972656h26.1875l40.796875 130.542969c1.113281 3.5625 4.410156 5.988281 8.144531 5.988281h17.066406c2.539063 0 4.945313-1.128906 6.566407-3.082031 1.621093-1.953125 2.289062-4.527344 1.820312-7.023438l-24.386719-130.074219c10.25-5.003906 17.320313-14.800781 18.839844-26.105468l2.585938-20.554688c.046875-.210937.171875-.382812.203125-.597656.035156-.242188-.050781-.464844-.039063-.707031l15.335938-121.914063c.589844-4.675781-2.726563-8.945312-7.402344-9.535156s-8.941406 2.726562-9.53125 7.402344l-1.109375 8.847656c-18.152344-1.800781-34.476563 11.085938-36.9375 29.160156l-7.160156 54.292969c-2.621094 18.539063 10.234375 35.710937 28.765625 38.417969l-1.636719 13.015625c-1.128906 8.492187-8.359375 14.839843-16.925781 14.859375h-3.984375c-4.078125-19.851563-21.539063-34.109375-41.804688-34.136719h-42.667969c-2.792968.007813-5.582031.285156-8.324218.835937l-17.722656-43.5h72.640624c9.421876-.011718 17.058594-7.644531 17.066407-17.066406v-17.066406c-.007813-9.421875-7.644531-17.058594-17.066407-17.066406h-324.265624c-9.421876.007812-17.058594 7.644531-17.066407 17.066406v17.066406c.007813 9.421875 7.644531 17.054688 17.066407 17.066406h72.640624l-17.722656 43.5c-2.742187-.550781-5.53125-.828124-8.328125-.835937h-42.664062c-20.265625.027344-37.726563 14.285156-41.804688 34.136719h-3.984375c-8.554687-.015625-15.78125-6.347656-16.921875-14.824219l-1.640625-13.054687c18.503906-2.695313 31.355469-19.828126 28.773438-38.347657l-7.175782-54.425781c-2.492187-18.042969-18.800781-30.894531-36.929687-29.097656l-1.109375-8.847656c-.585938-4.675782-4.855469-7.988282-9.53125-7.398438s-7.988281 4.855469-7.4023438 9.53125l15.3359378 121.921875c.011718.242187-.074219.460937-.042969.703125zm454.589844-17.480469c-2.742188-3.617187-3.910157-8.183593-3.253907-12.671875l7.160157-54.292968c1.21875-8.800782 9.039062-15.15625 17.902343-14.546876l-11.066406 87.996094c-4.28125-.699218-8.128906-3.023437-10.742187-6.484375zm-438.167969 187.851563h-.511719l22.40625-119.464844h15.445313zm137.132812 0h-.503906l-15.726562-50.371094 4.628906-11.363281zm174.675782 0h-.503906l11.605468-61.734375 4.628906 11.363281zm136.625 0-37.335938-119.464844h15.445313l22.402343 119.464844zm-108.675782-153.601563h42.667969c10.847657.015625 20.511719 6.847657 24.140625 17.070313h-61.566406l-6.886719-16.90625c.554688-.035156 1.082031-.164063 1.644531-.164063zm-21.144531-2.457031.019531.074219.035157.050781 12.703125 31.1875.050781.121094 50.769531 124.625h-15.699218l-38.710938-95.011719c-.050781-.125-.09375-.242187-.148438-.363281l-48.054687-117.957032h15.699219zm-256.527343-91.40625h324.265624l.011719 17.066406h-324.277343zm106.773437 34.132812-48.128906 118.140626-.042969.105468-38.742188 95.085938h-15.699218l50.773437-124.625.046875-.121094 12.6875-31.136719.03125-.042969.015625-.070312 23.355469-57.335938zm-102.847656 59.730469h42.664062c.570313 0 1.089844.128907 1.648438.160157l-6.886719 16.910156h-61.566406c3.628906-10.222656 13.292968-17.054688 24.140625-17.070313zm-66.28125-112.441406c3.605469 2.691406 5.992187 6.707031 6.621093 11.160156l7.179688 54.425781c1.304688 9.109376-4.917969 17.59375-14.003906 19.082032l-11.070313-87.988282c4.035157-.273437 8.03125.90625 11.273438 3.320313zm0 0"/><path d="m187.734375 110.933594h34.132813c0 18.851562 15.28125 34.132812 34.132812 34.132812s34.132812-15.28125 34.132812-34.132812h34.132813c3.59375 0 6.800781-2.25 8.023437-5.628906 1.222657-3.378907.199219-7.160157-2.5625-9.457032l-48.128906-40.109375v-21.605469c-.007812-9.421874-7.644531-17.054687-17.066406-17.066406v-8.53125c0-4.714844-3.820312-8.535156-8.53125-8.535156-4.714844 0-8.535156 3.820312-8.535156 8.535156v8.53125c-9.421875.011719-17.054688 7.644532-17.066406 17.066406v21.605469l-48.125 40.105469c-2.761719 2.300781-3.785157 6.082031-2.5625 9.460938 1.222656 3.378906 4.429687 5.628906 8.023437 5.628906zm68.265625 17.066406c-9.421875-.007812-17.058594-7.644531-17.066406-17.066406h34.132812c-.007812 9.421875-7.644531 17.058594-17.066406 17.066406zm-8.535156-93.867188h17.066406v17.066407h-17.066406zm-5.445313 34.132813h27.960938l30.71875 25.601563h-89.394531zm0 0"/></svg>