<svg height="512pt" viewBox="0 0 512 512" width="512pt" xmlns="http://www.w3.org/2000/svg"><path d="m486.398438 341.332031h-82.671876l71.558594-41.320312c5.898438-3.375 10.210938-8.957031 11.984375-15.519531 1.777344-6.5625.867188-13.558594-2.527343-19.445313l-59.75-103.460937c-3.402344-5.882813-9.007813-10.171876-15.574219-11.917969-6.566407-1.78125-13.574219-.84375-19.441407 2.597656l-71.574218 41.332031 41.308594-71.539062c3.429687-5.882813 4.371093-12.890625 2.621093-19.472656-1.75-6.582032-6.054687-12.195313-11.953125-15.59375l-103.445312-59.75c-5.886719-3.382813-12.875-4.285157-19.425782-2.511719-6.550781 1.773437-12.128906 6.074219-15.507812 11.960937l-41.332031 71.597656v-82.6875c-.015625-14.132812-11.46875-25.585937-25.601563-25.601562h-119.464844c-14.132812.015625-25.585937 11.46875-25.601562 25.601562v460.796876c.015625 14.132812 11.46875 25.585937 25.601562 25.601562h460.796876c14.132812-.015625 25.585937-11.46875 25.601562-25.601562v-119.464844c-.015625-14.132813-11.46875-25.585938-25.601562-25.601563zm-460.796876 0c-2.914062.03125-5.800781.5625-8.535156 1.574219v-86.90625h68.316406l-49.265624 85.332031zm343.992188 0h-116.691406l-39.09375-67.628906 88.667968-51.199219 68.234376 118.1875zm-80.761719-130.660156-101.023437 58.339844-67.671875-39.074219 51.179687-88.644531 118.179688 68.230469zm-135.230469-72.828125-52.4375 90.828125c-.027343.042969-.070312.0625-.097656.109375l-.046875.136719-5.78125 10.015625h-78.171875v-102.398438h136.535156zm-41.996093 106.875 59.136719 34.148438-108.175782 62.464843h-6.742187zm80.359375 41.601562.109375-.0625 6.957031-4.019531 34.160156 59.09375h-136.492187zm-38.363282 72.078126h102.398438v136.535156h-102.398438zm119.464844 0h102.398438v136.535156h-102.398438zm125.476563-191.371094c1.945312-1.148438 4.277343-1.464844 6.460937-.878906 2.203125.59375 4.082032 2.03125 5.230469 4.003906l59.714844 103.40625c1.136719 1.964844 1.441406 4.300781.84375 6.492187-.597657 2.1875-2.042969 4.050781-4.019531 5.164063l-81.285157 46.933594-68.230469-118.183594zm-171.746094-121.828125c1.117187-1.960938 2.972656-3.398438 5.15625-3.992188 2.179687-.59375 4.507813-.296875 6.46875.828125l103.390625 59.714844c1.988281 1.144531 3.441406 3.03125 4.039062 5.246094.585938 2.199218.261719 4.539062-.902343 6.496094l-46.914063 81.25-118.183594-68.230469zm-201.195313-28.132813h119.464844c4.710938.007813 8.527344 3.824219 8.535156 8.535156v93.863282h-136.535156v-93.863282c.007813-4.710937 3.824219-8.527343 8.535156-8.535156zm-8.535156 469.332032v-119.464844c.007813-4.710938 3.824219-8.527344 8.535156-8.535156h110.933594v136.535156h-110.933594c-4.710937-.007813-8.527343-3.824219-8.535156-8.535156zm477.867188 0c-.007813 4.710937-3.824219 8.527343-8.535156 8.535156h-93.863282v-136.535156h93.863282c4.710937.007812 8.527343 3.824218 8.535156 8.535156zm0 0"/><path d="m85.332031 392.535156c-18.851562 0-34.132812 15.28125-34.132812 34.132813 0 18.851562 15.28125 34.132812 34.132812 34.132812 18.851563 0 34.132813-15.28125 34.132813-34.132812-.019532-18.84375-15.289063-34.113281-34.132813-34.132813zm0 51.199219c-9.425781 0-17.066406-7.640625-17.066406-17.066406s7.640625-17.066407 17.066406-17.066407 17.066407 7.640626 17.066407 17.066407c-.007813 9.421875-7.644532 17.054687-17.066407 17.066406zm0 0"/></svg>